<?xml version="1.0" encoding="UTF-8" standalone="no"?>
<!-- Created with Inkscape (http://www.inkscape.org/) -->

<svg
   xmlns:dc="http://purl.org/dc/elements/1.1/"
   xmlns:cc="http://creativecommons.org/ns#"
   xmlns:rdf="http://www.w3.org/1999/02/22-rdf-syntax-ns#"
   xmlns:svg="http://www.w3.org/2000/svg"
   xmlns="http://www.w3.org/2000/svg"
   xmlns:sodipodi="http://sodipodi.sourceforge.net/DTD/sodipodi-0.dtd"
   xmlns:inkscape="http://www.inkscape.org/namespaces/inkscape"
   width="20"
   height="48"
   id="svg2"
   version="1.1"
   inkscape:version="0.48.2 r9819"
   sodipodi:docname="info_icon.svg"
   inkscape:export-filename="/Users/noelia/Proyectos/procyon/procyon/Images/Icons/info_icon.png"
   inkscape:export-xdpi="90"
   inkscape:export-ydpi="90">
  <defs
     id="defs4" />
  <sodipodi:namedview
     id="base"
     pagecolor="#ffffff"
     bordercolor="#666666"
     borderopacity="1.0"
     inkscape:pageopacity="0.0"
     inkscape:pageshadow="2"
     inkscape:zoom="5.6"
     inkscape:cx="-11.550454"
     inkscape:cy="9.8162144"
     inkscape:document-units="px"
     inkscape:current-layer="layer1"
     showgrid="false"
     fit-margin-top="0"
     fit-margin-left="0"
     fit-margin-right="0"
     fit-margin-bottom="0"
     inkscape:window-width="1245"
     inkscape:window-height="739"
     inkscape:window-x="0"
     inkscape:window-y="0"
     inkscape:window-maximized="0" />
  <metadata
     id="metadata7">
    <rdf:RDF>
      <cc:Work
         rdf:about="">
        <dc:format>image/svg+xml</dc:format>
        <dc:type
           rdf:resource="http://purl.org/dc/dcmitype/StillImage" />
        <dc:title></dc:title>
      </cc:Work>
    </rdf:RDF>
  </metadata>
  <g
     inkscape:label="Capa 1"
     inkscape:groupmode="layer"
     id="layer1"
     transform="translate(-662.21429,-285.00504)">
    <g
       id="g3838"
       transform="matrix(1.1717996,0,0,1.1713219,-177.03143,-53.494081)">
      <path
         sodipodi:nodetypes="sssssssssss"
         inkscape:connector-curvature="0"
         id="path3066"
         d="m 724.60288,303.24478 c 2.69815,0.15509 3.99465,1.33929 4.49973,3.86467 0.50507,2.52538 -0.43111,4.55838 -1.6938,8.85153 -1.26269,4.29314 -0.79551,7.5732 1.76776,7.3236 2.4361,-0.23721 4.64984,0.52713 0.75762,2.02031 -1.47886,0.56734 -4.22301,1.84486 -7.82868,0.50507 -3.35697,-1.24737 -3.30801,-5.01014 -2.27285,-8.21646 1.20405,-3.72943 2.77792,-8.70359 1.76777,-10.47136 -1.01015,-1.76777 -3.7792,0.22072 -4.1299,-0.59436 -0.3958,-0.91992 1.67849,-1.82642 3.65546,-2.52539 1.21405,-0.42923 2.46617,-0.8157 3.47689,-0.75761 z"
         style="fill:#000000;stroke:none" />
      <path
         transform="matrix(0.85617252,0,0,1.4399265,139.87328,-132.94989)"
         d="m 691.44942,298.28329 c 0,1.53421 -2.0917,2.77792 -4.67195,2.77792 -2.58025,0 -4.67196,-1.24371 -4.67196,-2.77792 0,-1.5342 2.09171,-2.77791 4.67196,-2.77791 2.58025,0 4.67195,1.24371 4.67195,2.77791 z"
         sodipodi:ry="2.7779195"
         sodipodi:rx="4.6719556"
         sodipodi:cy="298.28329"
         sodipodi:cx="686.77747"
         id="path3068"
         style="fill:#000000;fill-opacity:1;stroke:none"
         sodipodi:type="arc" />
    </g>
  </g>
</svg>
